/* XPM */
static char *_b3c6613414749f5ed6991f0fe28757bxaBNjLwYQmtqg6fn[] = {
/* columns rows colors chars-per-pixel */
"63 63 192 2 ",
"   c None",
".  c #171416",
"X  c #191617",
"o  c #1A1718",
"O  c #1C191A",
"+  c #171518",
"@  c #221D1D",
"#  c #2B1C1B",
"$  c #381E1E",
"%  c #26211E",
"&  c #2C231C",
"*  c #30281A",
"=  c #30271A",
"-  c #3F341B",
";  c #221F20",
":  c #242223",
">  c #2C2422",
",  c #2B2B2B",
"<  c #2D2825",
"1  c #332522",
"2  c #332C25",
"3  c #3F2D27",
"4  c #332D2B",
"5  c #3C3429",
"6  c #3B3327",
"7  c #273538",
"8  c #343334",
"9  c #3D3A39",
"0  c #322F30",
"q  c #44371C",
"w  c #482524",
"e  c #552622",
"r  c #45312A",
"t  c #49352B",
"y  c #53382C",
"u  c #493832",
"i  c #583D33",
"p  c #55441F",
"a  c #594822",
"s  c #5F4135",
"d  c #664538",
"f  c #6E493B",
"g  c #644437",
"h  c #734D3E",
"j  c #675635",
"k  c #796126",
"l  c #2C3E41",
"z  c #314447",
"x  c #494949",
"c  c #474747",
"v  c #584D48",
"b  c #535253",
"n  c #5C5E5D",
"m  c #5F514A",
"M  c #65564F",
"N  c #6E5E42",
"B  c #7A5141",
"V  c #775040",
"C  c #684E42",
"Z  c #726244",
"A  c #7C695F",
"S  c #47747A",
"D  c #616261",
"F  c #93342E",
"G  c #96382E",
"H  c #923633",
"J  c #993834",
"K  c #973C36",
"L  c #A73B38",
"P  c #A23A36",
"I  c #99442D",
"U  c #9E4038",
"Y  c #805A3A",
"T  c #BF423D",
"R  c #AD4F38",
"E  c #B86738",
"W  c #B47F32",
"Q  c #A1732D",
"!  c #C3433E",
"~  c #C64D3D",
"^  c #CC5A3D",
"/  c #D6773F",
"(  c #D2693F",
")  c #865846",
"_  c #895A47",
"`  c #905E49",
"'  c #854341",
"]  c #AB534F",
"[  c #AF5B4F",
"{  c #AD5350",
"}  c #97634C",
"|  c #996955",
" . c #8D7851",
".. c #897053",
"X. c #A26F4F",
"o. c #A56B53",
"O. c #AB7452",
"+. c #BB795D",
"@. c #B47658",
"#. c #AD7542",
"$. c #957B6D",
"%. c #907A6E",
"&. c #C54B42",
"*. c #CF7C50",
"=. c #C57E61",
"-. c #B58B32",
";. c #B69132",
":. c #BD9633",
">. c #BF9934",
",. c #A5842F",
"<. c #DB843F",
"1. c #C39537",
"2. c #D6AB3E",
"3. c #DAA43F",
"4. c #958056",
"5. c #9F895C",
"6. c #A58D5E",
"7. c #A8905F",
"8. c #9A8274",
"9. c #AD9562",
"0. c #B69B65",
"q. c #B89D66",
"w. c #B09764",
"e. c #A78D7E",
"r. c #A98E7F",
"t. c #B68C74",
"y. c #BFA46B",
"u. c #DC8140",
"i. c #DD8840",
"p. c #CB904D",
"a. c #C89751",
"s. c #E39441",
"d. c #DABF55",
"f. c #D0AB53",
"g. c #F4B945",
"h. c #EBA643",
"j. c #C78062",
"k. c #CC8363",
"l. c #D38766",
"z. c #D58867",
"x. c #D68968",
"c. c #D88A69",
"v. c #D88867",
"b. c #DA9365",
"n. c #D69163",
"m. c #D79172",
"M. c #CC9673",
"N. c #C1A66C",
"B. c #D9AA70",
"V. c #DAA772",
"C. c #D7B977",
"Z. c #D8B877",
"A. c #D6A86F",
"S. c #E2AC72",
"D. c #E0AB74",
"F. c #E1AC75",
"G. c #DAC055",
"H. c #FAC947",
"J. c #FBCA48",
"K. c #F7C547",
"L. c #E6C57D",
"P. c #EAC87F",
"I. c #EAC97F",
"U. c #E8C87F",
"Y. c #E8C77F",
"T. c #5D9397",
"R. c #54949C",
"E. c #5C939A",
"W. c #5C989E",
"Q. c #5B8E95",
"!. c #619A96",
"~. c #5597A0",
"^. c #5899A1",
"/. c #A98F80",
"(. c #AD9282",
"). c #B79B8A",
"_. c #C9AA97",
"`. c #D1B09D",
"'. c #CAA38D",
"]. c #EAB498",
"[. c #DFBDA7",
"{. c #EBCA80",
"}. c #EBC980",
"|. c #EDCB81",
" X c #EECD82",
".X c #D0C2B1",
"XX c #E4C1A9",
"oX c #F3C9AF",
"OX c #F5CFB6",
"+X c #F7D1B8",
"@X c #FBD4BB",
"#X c #F6D0B7",
/* pixels */
"                            @ o o o o o o o o o o o o o o o o o o o o o o o o o o o o o o o o o o o o o                       ",
"                            ; o o o X X X X X X X X X X X X X X X X X X X X X X X X X X X X X X o o o o                       ",
"                            ; o o @ 2 2 2 2 2 2 2 2 2 2 2 2 5 5 5 5 5 5 5 5 5 5 5 5 5 5 5 5 5 2 o o o o                       ",
"                            ; o X 6 6.7.7.7.7.7.7.7.7.7.6.w.Z.Z.C.C.C.C.C.C.C.C.C.C.C.C.C.C.Z.5.O o o o                       ",
"                            ; o X 5 9.0.0.0.0.0.0.0.0.0.0.N.L.}.P.P.P.P.P.P.P.P.P.P.P.P.P.P. X9.O o o o                       ",
"                            ; o X 5 9.0.0.0.0.0.0.0.0.0.0.y.L.P.P.P.P.P.P.P.P.P.P.P.P.P.P.P.|.9.O o o o                       ",
"                            ; o X 5 9.0.0.0.0.0.0.0.0.0.0.y.L.P.P.P.P.P.P.P.P.P.P.P.P.P.P.P.|.9.O o o o                       ",
"                            ; o X 5 9.0.0.0.0.0.0.0.0.0.0.y.L.P.P.P.P.P.P.P.P.P.P.P.P.P.P.P.|.9.O o o o                       ",
"                            ; o X 5 9.0.0.0.0.0.0.0.0.0.0.y.L.P.P.P.P.P.P.P.P.P.P.P.P.P.P.P.|.9.O o o o                       ",
"                            : o X 5 9.0.0.0.0.0.0.0.0.0.0.y.L.}.}.}.}.}.}.}.}.}.}.}.}.}.}.}. X9.O o o o                       ",
"                            @ o X 3 X.O.O.O.O.O.O.O.O.O.O.@.n.b.b.b.b.b.b.b.b.b.b.b.b.b.b.b.b.X.O o o O ;                     ",
"              O o o o o o o o o o $ H J J J J J J J J J J P T ! ! ! ! ! ! ! ! ! ! ! ! ! ! ! ! H O o o o o o o o o o o         ",
"              o o o o o o o o o X $ H J J J J J J J J J J P T ! ! ! ! ! ! ! ! ! ! ! ! ! ! ! ! H O o o o o o o o o o X         ",
"              O o o o o o o o o X $ H J J J J J J J J J J P T ! ! ! ! ! ! ! ! ! ! ! ! ! ! ! ! H O o o o o o o o o o X         ",
"              o o o O @ @ @ @ @ @ w K U U U U U U U U U U U &.&.&.&.&.&.&.&.&.&.&.&.&.&.&.&.&.K & % % % % % % O o o X         ",
"              o o o > ..4.4.4.4.4.6.A.B.B.B.B.B.B.B.B.B.B.B.S.S.S.S.S.S.S.S.S.S.S.S.S.S.S.S.S.B.N.y.y.y.y.y.N.j . o X         ",
"              O o X < 6.q.q.q.q.0.N.P.}.}.}.}.}.}.}.}.}.}.}.}.}.}.}.}.}.}.}.}.}.}.}.}.}.}.}.}.|.|.|.|.|.|.|. XZ . o X         ",
"              O o o < 6.q.q.q.q.q.N.Y.}.P.P.P.P.P.P.P.P.P.P.P.P.P.P.P.P.P.P.P.P.P.P.P.P.P.P.P.}.|.|.|.|.|.|. XZ . o o         ",
"              : : ; 2 N Z Z Z Z N ..V.D.D.D.D.D.D.D.D.D.D.D.D.D.D.D.D.D.D.D.D.D.D.D.D.D.D.D.F.N. . . . . . . .j O :           ",
"                      O X X X X . r j.l.l.l.l.l.l.l.l.l.l.l.l.l.l.l.l.l.l.l.l.l.l.l.l.l.l.l.z.} O X o X X X X                 ",
"                      O o o o o . r j.l.l.l.l.l.l.z.z.z.z.z.z.z.z.l.l.l.l.l.l.l.l.l.l.l.z.z.c.| O o o o o o o                 ",
"                      @ O O O o . r j.l.l.l.l.l.l.=.+.+.+.+.+.+.+.j.l.l.l.l.l.l.l.l.l.l.=.+.+._ O o o o O O O                 ",
"                            : o . r j.l.l.l.l.l.l.h & > > > > > 1 } z.l.l.l.l.l.l.l.l.l.d & > & o o o o                       ",
"                            : o . r j.l.l.l.l.l.l.g . X X X X X X ` x.l.l.l.l.l.l.l.l.l.i . X o o o o o                       ",
"                            : X . r j.z.l.l.l.l.z.d . o o o o o o } x.l.l.l.l.l.l.l.z.l.i . o o o o o o                       ",
"                            4 > : u +.j.j.j.j.j.j.g o o o O O O @ _ j.j.j.j.j.j.j.j.j.=.i o o O O O O @                       ",
"                      ; @ O %.`.`.r.r 3 3 3 3 3 3 2 , , , 4 b b b u 3 3 3 3 3 3 3 3 3 3 4 , , 8 b b b b 0 O O                 ",
"                      O o X 8.@X@X_.@ . X X X X X : , , , 8 n D D 8 . X X X X X X X X X : , , 9 D D D D , X o                 ",
"                      O o X 8.@X@X_.@ . . X o o o : , , , 8 n D D 8 X o X . . . X o o o : , , 9 D D D D , X o                 ",
"                      O o X | ].].M.h h h f 1 o o : , , , 8 c x x , X X 1 f f f f 1 X o : , , 8 x x x c > X o                 ",
"                      O o X ) z.l.l.z.z.z.k.t . o : , , , , , , , @ o . y k.z.z.l.y . o : , , , , , , , O o o                 ",
"                      O o X ) c.z.z.l.l.l.k.t . X : , , , , , , , O X . t k.l.l.k.y . X : , , , , , , , O X o                 ",
"                      @ O O B +.+.+.l.l.l.k.s 1 1 < , , , , , , , 4 5 4 C m.m.m.m.C 4 5 , , , , , , , , : O O                 ",
"                            2 > & y j.l.l.l.=.+.+.s o O O O O O O 8.XX[.XXoXoXoXoXXX[.[.M o O O O O O O                       ",
"                            : o . r j.l.l.l.l.l.z.d . o o o o o O /.@X+X+X+X+X+X+X+X+X+XM . o o o o o o                       ",
"                            : o . r j.l.l.l.l.l.l.d . o o o o o O /.@X+X+X+X+X+X+X+X+XOXM . o o o o o o                       ",
"                            : o X r k.z.z.z.l.l.l.g . X X X X X o r.@X+X+X+X+X+X+X+X+XOXM . o o o o o O                       ",
"                                  u h h h h +.z.l.| V B B B B B B '.+X+X+X+X+X+X+X+X+XOXM . o O                               ",
"                                    o X . O o.x.l.z.x.z.z.z.z.z.x.].+X+X+X+X+X+X+X+X+XOXM . o O                               ",
"                                    o . . O o.c.x.z.z.z.z.z.z.z.x.].@X@X@X@X@X@X@X@X@X+XM . o O                               ",
"                                  r a p p a Y ` ` ` ` ` ` ` ` ` ` $.e.e.e.e.e.e.e.e.e.e.m o @                                 ",
"                            : o o q ;.:.:.;.q X o X X X X X X X o o o o o o o o o o o O                                       ",
"                            : o X q ;.:.:.;.q + o o o o o o o o o o o o o o o o o o o o                                       ",
"                            : o + - ;.:.:.;.q . o o o o o o o o o o o o o o o o o o o o                                       ",
"                            2 & & q -.-.-.-.p & * & # # # # & * * # # # # = * * & @ o o                                       ",
"                      @ O O k ,.,.Q I I I I 1.2.2.E L L L R 3.2.2.E L L E 2.2.2.2.a . o O O O @                               ",
"                      O o X k 1.>.W G F F G 3.J.J.*.! ! ! ^ g.J.H./ ! ! ( K.J.J.K.a . o o o o O                               ",
"                      O o X k >.:.W G F F G 3.J.H./ ! ! ! ^ g.H.K./ ! ! ( K.H.H.K.a . o X X X o                               ",
"                      O o X Y p.p.#.e e e e E u.u.<.i.i.i.<.<.u.u.<.i.i.<.u.u.u./ y . o M %.%.A : : ; ;                       ",
"                      O o o ) x.x.o.@ X X O H ! ! s.H.H.H.g.~ ! ! s.H.H.h.! ! ! T w . O (.@X@X).O o o o                       ",
"                      O o X ) c.c.o.@ o o @ H ! ! s.H.H.H.g.~ ! ! s.H.H.h.! ! ! ! w . O (.@X@X).O o o o                       ",
"                      O o X h @.@.` @ o o O ' { ] p.G.d.d.f.[ ] ] a.d.d.a.] ] ] ] w X o %.`.`.8.O o o o                       ",
"                      O o o @ # @ @ o o o O S E.E.T.!.!.!.!.T.E.T.!.!.!.T.T.T.E.Q.7 X o @ > > : o o o o                       ",
"                      O o o o o o o o o o O S ~.~.~.~.R.~.~.R.R.~.~.~.~.~.~.R.~.R.l X o o X X o o o o o                       ",
"                      O o o o o o o o o o O S ~.~.~.~.~.~.~.R.R.R.~.~.~.~.R.R.~.R.l X o o o o o o o o o                       ",
"                      O O O O O O o o o o O S W.W.R.R.R.R.R.~.~.~.R.R.R.R.^.^.^.W.l X o O O O O O O O O                       ",
"                                    O o o O ..t.t.M 7 7 7 7       z 7 7 n .X.X.X.Xv . o                                       ",
"                                    O o o @ o.v.z.g . X X O       O X . v OX+X+XOXm . o                                       ",
"                                    O o o @ o.c.x.d . o o O       ; o . v OX@X@X#Xm . o                                       ",
"                                    O o o O d ) ) i o O O         ; o X 9 $.8.8.8.v o O                                       ",
"                                    O o o o X X X                 ; o o o X X X o                                             ",
"                                    O o o o o o o                 ; o o o o o o O                                             ",
"                                    O o o o o o o                 ; o o o o o o O                                             "
};
